<?xml version="1.0" encoding="UTF-8" standalone="no"?>
<svg
   width="173"
   height="56"
   version="1.1"
   viewBox="0 0 173 56"
   id="svg118"
   sodipodi:docname="panel-background.svg"
   inkscape:version="1.4.3 (0d15f75042, 2025-12-25)"
   xmlns:inkscape="http://www.inkscape.org/namespaces/inkscape"
   xmlns:sodipodi="http://sodipodi.sourceforge.net/DTD/sodipodi-0.dtd"
   xmlns:xlink="http://www.w3.org/1999/xlink"
   xmlns="http://www.w3.org/2000/svg"
   xmlns:svg="http://www.w3.org/2000/svg">
  <sodipodi:namedview
     id="namedview120"
     pagecolor="#ffffff"
     bordercolor="#666666"
     borderopacity="1.0"
     inkscape:pageshadow="2"
     inkscape:pageopacity="0.0"
     inkscape:pagecheckerboard="0"
     showgrid="true"
     inkscape:zoom="11.313708"
     inkscape:cx="107.87798"
     inkscape:cy="28.947184"
     inkscape:window-width="1920"
     inkscape:window-height="1048"
     inkscape:window-x="0"
     inkscape:window-y="0"
     inkscape:window-maximized="1"
     inkscape:current-layer="svg118"
     inkscape:showpageshadow="2"
     inkscape:deskcolor="#d1d1d1">
    <inkscape:grid
       type="xygrid"
       id="grid986"
       originx="0"
       originy="0"
       spacingy="1"
       spacingx="1"
       units="px" />
  </sodipodi:namedview>
  <defs
     id="defs16">
    <style
       id="current-color-scheme"
       type="text/css">.ColorScheme-Text {
        color:#31363b;
        stop-color:#31363b;
      }
      .ColorScheme-Background {
        color:#eff0f1;
        stop-color:#eff0f1;
      }
      .ColorScheme-Highlight {
        color:#3281ea;
        stop-color:#3281ea;
      }
      .ColorScheme-ViewText {
        color:#31363b;
        stop-color:#31363b;
      }
      .ColorScheme-ViewBackground {
        color:#fcfcfc;
        stop-color:#fcfcfc;
      }
      .ColorScheme-ViewHover {
        color:#93cee9;
        stop-color:#93cee9;
      }
      .ColorScheme-ViewFocus{
        color:#3281ea;
        stop-color:#3281ea;
      }
      .ColorScheme-ButtonText {
        color:#31363b;
        stop-color:#31363b;
      }
      .ColorScheme-ButtonBackground {
        color:#eff0f1;
        stop-color:#eff0f1;
      }
      .ColorScheme-ButtonHover {
        color:#93cee9;
        stop-color:#93cee9;
      }
      .ColorScheme-ButtonFocus{
        color:#3281ea;
        stop-color:#3281ea;
      }</style>
    <linearGradient
       id="linearGradient4270">
      <stop
         stop-opacity=".66663"
         offset="0"
         id="stop3" />
      <stop
         stop-opacity="0"
         offset="1"
         id="stop5" />
    </linearGradient>
    <radialGradient
       id="radialGradient1031"
       cx="77"
       cy="12"
       r="6"
       gradientTransform="matrix(2.1609e-5 4.2778 -3.5 1.768e-5 114 -295.39)"
       gradientUnits="userSpaceOnUse"
       xlink:href="#linearGradient4270" />
    <radialGradient
       id="radialGradient1025"
       cx="77"
       cy="12"
       r="6"
       gradientTransform="matrix(-2.1609e-5 4.2778 3.5 1.768e-5 18.002 -295.39)"
       gradientUnits="userSpaceOnUse"
       xlink:href="#linearGradient4270" />
    <radialGradient
       id="radialGradient1019"
       cx="77"
       cy="12"
       r="6"
       gradientTransform="matrix(2.1609e-5 -4.2778 -3.5 -1.768e-5 114 351.39)"
       gradientUnits="userSpaceOnUse"
       xlink:href="#linearGradient4270" />
    <linearGradient
       id="linearGradient4950"
       x1="49"
       x2="59.5"
       y1="932.36"
       y2="932.36"
       gradientTransform="matrix(.85714 0 0 1 8.9999 0)"
       gradientUnits="userSpaceOnUse"
       xlink:href="#linearGradient4270" />
    <linearGradient
       id="linearGradient4948"
       x1="-21"
       x2="-10.5"
       y1="932.36"
       y2="932.36"
       gradientTransform="matrix(.85714 0 0 1 -1 0)"
       gradientUnits="userSpaceOnUse"
       xlink:href="#linearGradient4270" />
    <linearGradient
       id="linearGradient4934"
       x1="946.36"
       x2="958.86"
       y1="-35"
       y2="-35"
       gradientTransform="matrix(.85714 0 0 1 137.2 0)"
       gradientUnits="userSpaceOnUse"
       xlink:href="#linearGradient4270" />
    <radialGradient
       id="radialGradient994"
       cx="77"
       cy="12"
       r="6"
       gradientTransform="matrix(-2.1609e-5 -4.2778 3.5 -1.768e-5 18.002 351.39)"
       gradientUnits="userSpaceOnUse"
       xlink:href="#linearGradient4270" />
    <linearGradient
       id="linearGradient4920"
       x1="-918.36"
       x2="-905.86"
       y1="-35"
       y2="-35"
       gradientTransform="matrix(1.2857 0 0 1 264.4 0)"
       gradientUnits="userSpaceOnUse"
       xlink:href="#linearGradient4270" />
  </defs>
  <g
     id="shadow-topleft"
     transform="matrix(1.1667 0 0 1.1667 64.667 -1086.8)"
     opacity=".25">
    <path
       transform="matrix(.85715 0 0 .85715 -55.429 931.51)"
       d="m32-6v28h12c0-8.864 7.136-16 16-16v-12h-28z"
       fill="url(#radialGradient994)"
       fill-rule="evenodd"
       opacity=".9"
       id="path18" />
  </g>
  <g
     id="shadow-topright"
     transform="matrix(-1.1667 0 0 1.1667 67.333 -1086.8)"
     opacity=".25">
    <path
       transform="matrix(-.85714 0 0 .85714 57.714 931.51)"
       d="m72-6v12c8.864 0 16 7.136 16 16h12v-28h-28z"
       fill="url(#radialGradient1019)"
       fill-rule="evenodd"
       opacity=".9"
       id="path21" />
  </g>
  <g
     id="shadow-bottomright"
     transform="matrix(-1.1667 0 0 -1.1667 67.333 1142.8)"
     opacity=".25">
    <path
       transform="matrix(-.85714 0 0 -.85714 57.714 979.5)"
       d="m88 34c0 8.864-7.136 16-16 16v12h28v-28h-12z"
       fill="url(#radialGradient1031)"
       fill-rule="evenodd"
       opacity=".9"
       id="path24" />
  </g>
  <g
     id="shadow-bottomleft"
     transform="matrix(1.1667 0 0 -1.1667 64.667 1142.8)"
     opacity=".25">
    <path
       transform="matrix(.85714 0 0 -.85714 -55.429 979.5)"
       d="m32 34v28h28v-12c-8.864 0-16-7.136-16-16h-12z"
       fill="url(#radialGradient1025)"
       fill-rule="evenodd"
       opacity=".9"
       id="path27" />
  </g>
  <rect
     id="hint-tile-center"
     y="-1.4648e-5"
     width="5"
     height="5"
     fill="#f60" />
  <g
     id="top"
     transform="matrix(0.375,0,0,2.6667,52.875,-2421.6572)">
    <rect
       class="ColorScheme-Background"
       transform="matrix(0,-1,-1,0,0,0)"
       x="-916.35999"
       y="-51"
       width="6"
       height="32"
       id="rect31"
       style="fill:#000000;opacity:0.65" />
  </g>
  <g
     id="topleft"
     transform="matrix(1.3333,0,0,1.3333,26.6675,-1207.7826)">
    <path
       d="m 25,910.36 c -6.648,0 -12,5.352 -12,12 h 12 v -10 z"
       id="path34"
       style="fill:#000000;opacity:0.65" />
  </g>
  <g
     id="topright"
     transform="matrix(1.3333,0,0,1.3333,12.0015,-1207.7826)">
    <path
       d="m 45,910.36 v 12 h 12 c 0,-6.648 -5.352,-12 -12,-12 z"
       id="path37"
       style="fill:#000000;opacity:0.65" />
  </g>
  <g
     id="bottom"
     transform="matrix(0.375,0,0,2.6667,52.875,-2494.9918)">
    <rect
       class="ColorScheme-Background"
       transform="rotate(90)"
       x="948.35999"
       y="-51"
       width="6"
       height="32"
       id="rect40"
       style="fill:#000000;opacity:0.65" />
  </g>
  <g
     id="bottomleft"
     transform="matrix(1.3333,0,0,1.3333,26.6675,-1222.4482)">
    <path
       d="m 13,942.36 c 0,6.648 5.352,12 12,12 v -12 H 15 Z"
       id="path43"
       style="fill:#000000;opacity:0.65" />
  </g>
  <g
     id="bottomright"
     transform="matrix(1.3333,0,0,1.3333,12.0015,-1222.4482)">
    <path
       d="m 45,942.36 v 12 c 6.648,0 12,-5.352 12,-12 H 47 Z"
       id="path46"
       style="fill:#000000;opacity:0.65" />
  </g>
  <g
     id="left"
     transform="matrix(2.6667,0,0,0.375,9.3327,-321.63499)">
    <rect
       class="ColorScheme-Background"
       transform="scale(-1,1)"
       x="-19"
       y="916.35999"
       width="6"
       height="32"
       id="rect49"
       style="fill:#000000;opacity:0.65" />
  </g>
  <g
     id="right"
     transform="matrix(2.6667,0,0,0.375,-64.0017,-321.63499)">
    <rect
       class="ColorScheme-Background"
       x="51"
       y="916.35999"
       width="6"
       height="32"
       id="rect52"
       style="fill:#000000;opacity:0.65" />
  </g>
  <rect
     id="center"
     class="ColorScheme-Background"
     x="60"
     y="22"
     width="12"
     height="12"
     style="fill:#000000;opacity:0.65" />
  <rect
     id="hint-top-margin"
     x="64"
     y="6"
     width="4"
     height="2.9999001"
     fill="#ff00ff" />
  <rect
     id="hint-bottom-margin"
     x="64"
     y="47"
     width="4"
     height="3"
     fill="#f0f" />
  <rect
     id="hint-right-margin"
     transform="rotate(90)"
     x="26"
     y="-88"
     width="4"
     height="3"
     fill="#f0f" />
  <rect
     id="hint-left-margin"
     transform="rotate(90)"
     x="26"
     y="-47"
     width="4"
     height="3"
     fill="#f0f" />
  <g
     id="shadow-top"
     transform="matrix(.375 0 0 1.5556 52.875 -1403.5)"
     opacity=".25">
    <rect
       transform="matrix(0,-1,-1,0,0,0)"
       x="-916.36"
       y="-51"
       width="6"
       height="32"
       fill="none"
       opacity="1"
       id="rect60" />
    <rect
       transform="matrix(0,-1,-1,0,0,0)"
       x="-906.08"
       y="-51"
       width="7.7144"
       height="32"
       fill="url(#linearGradient4920)"
       opacity=".9"
       id="rect62" />
    <rect
       transform="matrix(0,-1,-1,0,0,0)"
       x="-911.36"
       y="-51"
       width=".99998"
       height="32"
       fill="none"
       opacity="1"
       id="rect64" />
  </g>
  <g
     id="shadow-bottom"
     transform="matrix(.375 0 0 2.3333 52.875 -2178.8)"
     opacity=".25">
    <rect
       transform="rotate(90)"
       x="948.36"
       y="-51"
       width="6"
       height="32"
       fill="none"
       opacity="1"
       id="rect67" />
    <rect
       transform="rotate(90)"
       x="955.22"
       y="-51"
       width="5.1428"
       height="32"
       fill="url(#linearGradient4934)"
       opacity=".9"
       id="rect69" />
    <rect
       transform="rotate(90)"
       x="953.36"
       y="-51"
       width="1"
       height="32"
       fill="none"
       opacity="1"
       id="rect71" />
  </g>
  <g
     id="shadow-left"
     transform="matrix(2.3333 0 0 .375 15.667 -321.64)"
     opacity=".25">
    <rect
       transform="scale(-1,1)"
       x="-19"
       y="916.36"
       width="6"
       height="32"
       fill="none"
       opacity="1"
       id="rect74" />
    <rect
       transform="scale(-1,1)"
       x="-12.143"
       y="916.36"
       width="5.1429"
       height="32"
       fill="url(#linearGradient4948)"
       opacity=".9"
       id="rect76" />
    <rect
       transform="scale(-1,1)"
       x="-14"
       y="916.36"
       width="1"
       height="32"
       fill="none"
       opacity="1"
       id="rect78" />
  </g>
  <g
     id="shadow-right"
     transform="matrix(2.3333 0 0 .375 -47 -321.64)"
     opacity=".25">
    <rect
       x="51"
       y="916.36"
       width="6"
       height="32"
       fill="none"
       opacity="1"
       id="rect81" />
    <rect
       x="57.857"
       y="916.36"
       width="5.1429"
       height="32"
       fill="url(#linearGradient4950)"
       opacity=".9"
       id="rect83" />
    <rect
       x="56"
       y="916.36"
       width="1"
       height="32"
       fill="none"
       opacity="1"
       id="rect85" />
  </g>
  <rect
     id="shadow-hint-top-margin"
     x="64"
     y="-6"
     width="4"
     height="12"
     fill="#ff6600" />
  <rect
     id="shadow-hint-bottom-margin"
     x="64"
     y="50"
     width="4"
     height="12"
     fill="#f60" />
  <rect
     id="shadow-hint-right-margin"
     transform="rotate(90)"
     x="26"
     y="-100"
     width="4"
     height="12"
     fill="#f60" />
  <rect
     id="shadow-hint-left-margin"
     transform="rotate(90)"
     x="26"
     y="-44"
     width="4"
     height="12"
     fill="#f60" />
  <g
     id="mask-top"
     transform="matrix(0.375,0,0,1.3333333,137.875,-1207.8133)">
    <rect
       transform="matrix(0,-1,-1,0,0,0)"
       x="-922.35999"
       y="-51"
       width="12"
       height="32"
       id="rect92" />
  </g>
  <g
     id="mask-topleft"
     transform="matrix(1.6,0,0,1.6,108.2,-1450.536)">
    <path
       d="m 23,910.36 c -5.54,0 -10,4.46 -10,10 h 10 z"
       id="path95" />
  </g>
  <g
     id="mask-topright"
     transform="matrix(1.875,0,0,1.875,65.125,-1700.895)">
    <path
       d="m 49,910.36 v 8.53333 h 8.533333 C 57.533333,914.16587 53.727467,910.36 49,910.36 Z"
       id="path98" />
  </g>
  <g
     id="mask-bottom"
     transform="matrix(0.375,0,0,1.6,137.875,-1476.976)">
    <rect
       transform="rotate(90)"
       x="944.35999"
       y="-51"
       width="10"
       height="32"
       id="rect101" />
  </g>
  <g
     id="mask-bottomleft"
     transform="matrix(1.3333333,0,0,1.3333333,111.66667,-1222.48)">
    <path
       d="m 13,942.36 c 0,6.648 5.352,12 12,12 v -12 z"
       id="path104" />
  </g>
  <g
     id="mask-bottomright"
     transform="matrix(1.3333333,0,0,1.3333333,97.000001,-1222.48)">
    <path
       d="m 45,942.36 v 12 c 6.648,0 12,-5.352 12,-12 z"
       id="path107" />
  </g>
  <g
     id="mask-left"
     transform="matrix(1.3333333,0,0,0.60001,111.66667,-531.42)">
    <rect
       transform="scale(-1,1)"
       x="-25"
       y="922.35999"
       width="12"
       height="20"
       id="rect110" />
  </g>
  <g
     id="mask-right"
     transform="matrix(1.6,0,0,0.375,81.8,-321.63499)">
    <rect
       x="47"
       y="916.35999"
       width="10"
       height="32"
       id="rect113" />
  </g>
  <rect
     id="mask-center"
     x="145"
     y="22"
     width="12"
     height="12" />
  <rect
     id="shadow-center"
     class="ColorScheme-Background"
     x="60"
     y="80"
     width="12"
     height="12"
     color="#eff0f1"
     opacity="0"
     stroke-width=".375" />
  <rect
     style="color:#eff0f1;opacity:0.9;fill:currentColor;fill-opacity:1;stroke:none;stop-color:#eff0f1"
     id="thick-center"
     width="32"
     height="32"
     x="20"
     y="-62.210289"
     class="ColorScheme-Background" />
  <rect
     transform="rotate(90)"
     style="fill:#800080;fill-opacity:1;stroke:none;stroke-width:1.1547"
     id="thick-hint-right-margin"
     width="4"
     height="8"
     x="-42.210293"
     y="-57" />
  <rect
     transform="rotate(90)"
     y="-21"
     x="-42.210293"
     height="8"
     width="4"
     id="thick-hint-left-margin"
     style="fill:#800080;fill-opacity:1;stroke:none;stroke-width:1.1547" />
  <rect
     y="-68.210289"
     x="39"
     height="8"
     width="4"
     id="thick-hint-top-margin"
     style="fill:#800080;fill-opacity:1;stroke:none;stroke-width:1.1547" />
  <rect
     style="fill:#800080;fill-opacity:1;stroke:none;stroke-width:1.1547"
     id="thick-hint-bottom-margin"
     width="4"
     height="8"
     x="40"
     y="-32.210289" />
  <rect
     y="6"
     x="59"
     height="3"
     width="4"
     id="hint-top-inset"
     style="fill:#00ff00;fill-opacity:1;stroke:none;stroke-width:0.707106" />
  <rect
     style="fill:#ffcc00;fill-opacity:1;stroke:none;stroke-width:1.41422"
     id="shadow-hint-top-inset"
     width="3.9999998"
     height="12"
     x="59"
     y="-5.999896" />
  <rect
     transform="rotate(90)"
     style="fill:#00ff00;fill-opacity:1;stroke:none;stroke-width:0.707106"
     id="hint-right-inset"
     width="4"
     height="3"
     x="21"
     y="-88" />
  <rect
     y="-100"
     x="21.000023"
     height="12"
     width="4"
     id="shadow-hint-right-inset"
     style="fill:#ffcc00;fill-opacity:1;stroke:none;stroke-width:1.41422"
     transform="rotate(90)" />
  <rect
     transform="rotate(90)"
     y="-47"
     x="21"
     height="3"
     width="3.9999998"
     id="hint-left-inset"
     style="fill:#00ff00;fill-opacity:1;stroke:none;stroke-width:0.707106" />
  <rect
     style="fill:#ffcc00;fill-opacity:1;stroke:none;stroke-width:1.41421"
     id="shadow-hint-left-inset"
     width="4.0000229"
     height="12"
     x="21"
     y="-44"
     transform="rotate(90)" />
  <rect
     style="fill:#00ff00;fill-opacity:1;stroke:none;stroke-width:0.70711"
     id="hint-bottom-inset"
     width="4"
     height="3"
     x="59"
     y="47" />
  <rect
     y="50.000099"
     x="59"
     height="11.999977"
     width="3.9999998"
     id="shadow-hint-bottom-inset"
     style="fill:#ffcc00;fill-opacity:1;stroke:none;stroke-width:1.41421" />
  <path
     style="fill:#1a1625;stroke-width:0.25;fill-opacity:1"
     d="M 44,32 V 30.125 H 45.5 47 V 28 25.875 h -1.5 c -1.166667,0 -1.5,-0.08333 -1.5,-0.375 0,-0.291667 0.333333,-0.375 1.5,-0.375 H 47 v -1.5 -1.5 h 19 19 v 1.5 1.5 h 1.5 c 1.166668,0 1.5,0.08333 1.5,0.375 0,0.291667 -0.333332,0.375 -1.5,0.375 H 85 V 28 30.125 H 86.5 88 V 32 33.875 H 66 44 Z"
     id="path13" />
  <path
     style="fill:#1a1625;fill-opacity:1;stroke-width:0.25"
     d="m 47,21.375 c 0,-0.439394 -0.166667,-0.5 -1.375,-0.5 -1.314868,0 -1.375,-0.02849 -1.375,-0.651414 0,-1.102185 0.746858,-3.606505 1.551858,-5.203595 2.20211,-4.368908 6.275927,-7.5514072 10.92892,-8.5377622 C 59.104897,5.978956 59,5.9261301 59,7.625 v 1.5 h 2 2 v -1.5 c 0,-1.3333333 0.05555,-1.5 0.5,-1.5 0.444445,0 0.5,0.1666667 0.5,1.5 v 1.5 h 2 2 v -1.5 -1.5 l 2.8125,0.00434 c 1.546875,0.00239 3.5524,0.1611871 4.456722,0.3528879 4.652993,0.986355 8.72681,4.1688541 10.928921,8.5377621 0.804999,1.59709 1.551857,4.10141 1.551857,5.203595 0,0.622926 -0.06013,0.651414 -1.375,0.651414 -1.208332,0 -1.375,0.06061 -1.375,0.5 0,0.495614 -0.166668,0.5 -19,0.5 -18.833333,0 -19,-0.0044 -19,-0.499999 z"
     id="path14" />
  <path
     style="fill:#1a1625;fill-opacity:1;stroke-width:0.25"
     d="M 56.615468,49.506631 C 53.292471,48.783228 49.779485,46.593027 47.708411,43.953453 45.618236,41.289535 44.25,37.856676 44.25,35.276414 V 34.125 H 66 87.75 v 1.151414 c 0,3.752251 -2.672595,8.682519 -6.105465,11.263054 -3.205765,2.409816 -5.338328,3.10175 -10.082035,3.27123 L 68,49.937975 V 48.406488 46.875 h -2 -2 v 1.5 c 0,1.333333 -0.05555,1.5 -0.5,1.5 -0.444445,0 -0.5,-0.166667 -0.5,-1.5 v -1.5 h -2 -2 v 1.5 c 0,1.709034 0.08422,1.669067 -2.384532,1.131631 z"
     id="path15" />
  <path
     style="fill:#1a1625;fill-opacity:1;stroke-width:0.25"
     d="m 129,28 v -5.875 h 22 22 V 28 33.875 h -22 -22 z"
     id="path16" />
  <path
     style="fill:#1a1625;fill-opacity:1;stroke-width:0.25"
     d="m 129.25,20.887305 c 0,-1.479611 0.47762,-3.453214 1.25123,-5.170322 1.86917,-4.148792 5.1332,-7.1425172 9.48773,-8.7020023 L 142.125,6.25 h 8.75 c 7.79658,0 8.91344,0.050262 10.25,0.4612859 4.69335,1.4433172 8.07691,4.2989181 10.11741,8.5387141 1.00575,2.089785 1.50759,3.966284 1.50759,5.637305 V 21.875 H 151 129.25 Z"
     id="path17" />
  <path
     style="fill:#120e1a;fill-opacity:1;stroke-width:0.25"
     d="m 142.5,49.711993 c -2.65579,-0.47675 -5.57977,-1.860486 -7.74,-3.662844 -3.10949,-2.59437 -5.51,-7.287669 -5.51,-10.772735 V 34.125 H 151 172.75 l -0.004,1.0625 c -0.0133,3.817686 -2.66442,8.768069 -6.06445,11.323918 -1.81859,1.367057 -2.74065,1.85988 -4.93354,2.63688 -1.55948,0.552564 -1.95756,0.577162 -10.12331,0.625537 -4.675,0.0277 -8.78125,-1.33e-4 -9.125,-0.06184 z"
     id="path19" />
  <path
     style="fill:#120e1a;fill-opacity:1;stroke-width:0.25"
     d="m 129,28 v -5.875 h 22 22 V 28 33.875 h -22 -22 z"
     id="path20" />
  <path
     style="fill:#120e1a;fill-opacity:1;stroke-width:0.25"
     d="m 129.38104,20.3125 c 0.38337,-3.325488 1.9429,-6.646877 4.24396,-9.038557 1.66088,-1.7262917 3.29155,-2.8114919 5.94152,-3.9540491 L 141.75805,6.375 h 8.60867 c 9.4162,0 10.23434,0.087144 13.08574,1.3938334 4.98904,2.2862906 8.54946,7.1957426 9.18755,12.6686666 l 0.1676,1.4375 h -21.80335 -21.80335 z"
     id="path22" />
</svg>
